<?xml version="1.0" encoding="UTF-8" standalone="no"?>
<!DOCTYPE svg PUBLIC "-//W3C//DTD SVG 1.1//EN"
 "http://www.w3.org/Graphics/SVG/1.1/DTD/svg11.dtd">
<!-- Generated by graphviz version 2.38.0 (20140413.2041)
 -->
<!-- Title: G Pages: 1 -->
<svg width="1483pt" height="2060pt"
 viewBox="0.00 0.00 1483.11 2060.00" xmlns="http://www.w3.org/2000/svg" xmlns:xlink="http://www.w3.org/1999/xlink">
<g id="graph0" class="graph" transform="scale(1 1) rotate(0) translate(4 2056)">
<title>G</title>
<polygon fill="white" stroke="none" points="-4,4 -4,-2056 1479.11,-2056 1479.11,4 -4,4"/>
<g id="clust1" class="cluster"><title>cluster_Global</title>
<path fill="none" stroke="gray" d="M376.364,-514C376.364,-514 1455.11,-514 1455.11,-514 1461.11,-514 1467.11,-520 1467.11,-526 1467.11,-526 1467.11,-2032 1467.11,-2032 1467.11,-2038 1461.11,-2044 1455.11,-2044 1455.11,-2044 376.364,-2044 376.364,-2044 370.364,-2044 364.364,-2038 364.364,-2032 364.364,-2032 364.364,-526 364.364,-526 364.364,-520 370.364,-514 376.364,-514"/>
<text text-anchor="middle" x="915.739" y="-2031.2" font-family="Times,serif" font-size="11.00" fill="gray">\</text>
</g>
<!-- \\ZendX_JQuery -->
<g id="node1" class="node"><title>\\ZendX_JQuery</title>
<polygon fill="none" stroke="black" points="1363.61,-2016 1278.61,-2016 1278.61,-1980 1363.61,-1980 1363.61,-2016"/>
<text text-anchor="middle" x="1321.11" y="-1995.2" font-family="Times,serif" font-size="11.00">ZendX_JQuery</text>
</g>
<!-- \\ZendX_Exception -->
<g id="node2" class="node"><title>\\ZendX_Exception</title>
<polygon fill="none" stroke="black" points="520.864,-1964 423.864,-1964 423.864,-1928 520.864,-1928 520.864,-1964"/>
<text text-anchor="middle" x="472.364" y="-1943.2" font-family="Times,serif" font-size="11.00">ZendX_Exception</text>
</g>
<!-- \\Zend_Exception -->
<g id="node46" class="node"><title>\\Zend_Exception</title>
<ellipse fill="none" stroke="black" cx="135.838" cy="-1971" rx="71.4873" ry="18"/>
<text text-anchor="middle" x="135.838" y="-1967.3" font-family="Times,serif" font-size="14.00" fill="gray">\Zend_Exception</text>
</g>
<!-- \\ZendX_Exception&#45;&gt;\\Zend_Exception -->
<g id="edge1" class="edge"><title>\\ZendX_Exception&#45;&gt;\\Zend_Exception</title>
<path fill="none" stroke="black" d="M423.79,-1949.56C369.341,-1953.62 279.356,-1960.35 214.661,-1965.18"/>
<polygon fill="none" stroke="black" points="214.216,-1961.71 204.504,-1965.94 214.738,-1968.69 214.216,-1961.71"/>
</g>
<!-- \\ZendX_JQuery_Form -->
<g id="node3" class="node"><title>\\ZendX_JQuery_Form</title>
<polygon fill="none" stroke="black" points="1377.61,-1044 1264.61,-1044 1264.61,-1008 1377.61,-1008 1377.61,-1044"/>
<text text-anchor="middle" x="1321.11" y="-1023.2" font-family="Times,serif" font-size="11.00">ZendX_JQuery_Form</text>
</g>
<!-- \\Zend_Form -->
<g id="node47" class="node"><title>\\Zend_Form</title>
<ellipse fill="none" stroke="black" cx="892.084" cy="-434" rx="55.4913" ry="18"/>
<text text-anchor="middle" x="892.084" y="-430.3" font-family="Times,serif" font-size="14.00" fill="gray">\Zend_Form</text>
</g>
<!-- \\ZendX_JQuery_Form&#45;&gt;\\Zend_Form -->
<g id="edge2" class="edge"><title>\\ZendX_JQuery_Form&#45;&gt;\\Zend_Form</title>
<path fill="none" stroke="black" d="M1264.49,-1029.32C1236.23,-1027.86 1203.62,-1020.81 1183.11,-999 1017.86,-823.248 1282.54,-630.744 1111.11,-461 1069.62,-419.91 999.768,-418.312 950.323,-423.666"/>
<polygon fill="none" stroke="black" points="949.607,-420.227 940.099,-424.902 950.447,-427.176 949.607,-420.227"/>
</g>
<!-- \\ZendX_JQuery_Exception -->
<g id="node4" class="node"><title>\\ZendX_JQuery_Exception</title>
<polygon fill="none" stroke="black" points="959.084,-2016 825.084,-2016 825.084,-1980 959.084,-1980 959.084,-2016"/>
<text text-anchor="middle" x="892.084" y="-1995.2" font-family="Times,serif" font-size="11.00">ZendX_JQuery_Exception</text>
</g>
<!-- \\ZendX_JQuery_Exception&#45;&gt;\\Zend_Exception -->
<g id="edge3" class="edge"><title>\\ZendX_JQuery_Exception&#45;&gt;\\Zend_Exception</title>
<path fill="none" stroke="black" d="M824.81,-1995.63C686.272,-1990.67 366.495,-1979.22 216.82,-1973.86"/>
<polygon fill="none" stroke="black" points="216.895,-1970.36 206.776,-1973.5 216.645,-1977.36 216.895,-1970.36"/>
</g>
<!-- \\ZendX_JQuery_View_Helper_TabPane -->
<g id="node5" class="node"><title>\\ZendX_JQuery_View_Helper_TabPane</title>
<polygon fill="none" stroke="black" points="1418.61,-1692 1223.61,-1692 1223.61,-1656 1418.61,-1656 1418.61,-1692"/>
<text text-anchor="middle" x="1321.11" y="-1671.2" font-family="Times,serif" font-size="11.00">ZendX_JQuery_View_Helper_TabPane</text>
</g>
<!-- \\ZendX_JQuery_View_Helper_UiWidgetPane -->
<g id="node11" class="node"><title>\\ZendX_JQuery_View_Helper_UiWidgetPane</title>
<polygon fill="none" stroke="black" points="1002.58,-1692 781.584,-1692 781.584,-1656 1002.58,-1656 1002.58,-1692"/>
<text text-anchor="start" x="869.084" y="-1677.2" font-family="Times,serif" font-size="11.00">«abstract»</text>
<text text-anchor="start" x="789.584" y="-1665.2" font-family="Times,serif" font-size="11.00">ZendX_JQuery_View_Helper_UiWidgetPane</text>
</g>
<!-- \\ZendX_JQuery_View_Helper_TabPane&#45;&gt;\\ZendX_JQuery_View_Helper_UiWidgetPane -->
<g id="edge4" class="edge"><title>\\ZendX_JQuery_View_Helper_TabPane&#45;&gt;\\ZendX_JQuery_View_Helper_UiWidgetPane</title>
<path fill="none" stroke="black" d="M1223.48,-1674C1161.11,-1674 1079.52,-1674 1013.02,-1674"/>
<polygon fill="none" stroke="black" points="1012.9,-1670.5 1002.9,-1674 1012.9,-1677.5 1012.9,-1670.5"/>
</g>
<!-- \\ZendX_JQuery_View_Helper_TabContainer -->
<g id="node6" class="node"><title>\\ZendX_JQuery_View_Helper_TabContainer</title>
<polygon fill="none" stroke="black" points="1000.58,-1530 783.584,-1530 783.584,-1494 1000.58,-1494 1000.58,-1530"/>
<text text-anchor="middle" x="892.084" y="-1509.2" font-family="Times,serif" font-size="11.00">ZendX_JQuery_View_Helper_TabContainer</text>
</g>
<!-- \\ZendX_JQuery_View_Helper_UiWidget -->
<g id="node15" class="node"><title>\\ZendX_JQuery_View_Helper_UiWidget</title>
<polygon fill="none" stroke="black" points="572.364,-1665 372.364,-1665 372.364,-1629 572.364,-1629 572.364,-1665"/>
<text text-anchor="start" x="449.364" y="-1650.2" font-family="Times,serif" font-size="11.00">«abstract»</text>
<text text-anchor="start" x="380.364" y="-1638.2" font-family="Times,serif" font-size="11.00">ZendX_JQuery_View_Helper_UiWidget</text>
</g>
<!-- \\ZendX_JQuery_View_Helper_TabContainer&#45;&gt;\\ZendX_JQuery_View_Helper_UiWidget -->
<g id="edge5" class="edge"><title>\\ZendX_JQuery_View_Helper_TabContainer&#45;&gt;\\ZendX_JQuery_View_Helper_UiWidget</title>
<path fill="none" stroke="black" d="M783.466,-1517.33C747.719,-1521.19 708.111,-1527.79 673.053,-1539 611.189,-1558.78 546.227,-1597.85 507.789,-1623.17"/>
<polygon fill="none" stroke="black" points="505.452,-1620.52 499.071,-1628.98 509.334,-1626.35 505.452,-1620.52"/>
</g>
<!-- \\ZendX_JQuery_View_Helper_AccordionContainer -->
<g id="node7" class="node"><title>\\ZendX_JQuery_View_Helper_AccordionContainer</title>
<polygon fill="none" stroke="black" points="1015.08,-1476 769.084,-1476 769.084,-1440 1015.08,-1440 1015.08,-1476"/>
<text text-anchor="middle" x="892.084" y="-1455.2" font-family="Times,serif" font-size="11.00">ZendX_JQuery_View_Helper_AccordionContainer</text>
</g>
<!-- \\ZendX_JQuery_View_Helper_AccordionContainer&#45;&gt;\\ZendX_JQuery_View_Helper_UiWidget -->
<g id="edge6" class="edge"><title>\\ZendX_JQuery_View_Helper_AccordionContainer&#45;&gt;\\ZendX_JQuery_View_Helper_UiWidget</title>
<path fill="none" stroke="black" d="M768.847,-1461.09C736.742,-1465.1 702.796,-1472.34 673.053,-1485 598.849,-1516.58 529.934,-1584.26 495.794,-1621.37"/>
<polygon fill="none" stroke="black" points="493.179,-1619.04 489.047,-1628.8 498.361,-1623.75 493.179,-1619.04"/>
</g>
<!-- \\ZendX_JQuery_View_Helper_JQuery -->
<g id="node8" class="node"><title>\\ZendX_JQuery_View_Helper_JQuery</title>
<polygon fill="none" stroke="black" points="1415.11,-990 1227.11,-990 1227.11,-954 1415.11,-954 1415.11,-990"/>
<text text-anchor="middle" x="1321.11" y="-969.2" font-family="Times,serif" font-size="11.00">ZendX_JQuery_View_Helper_JQuery</text>
</g>
<!-- \\Zend_View_Helper_Abstract -->
<g id="node48" class="node"><title>\\Zend_View_Helper_Abstract</title>
<ellipse fill="none" stroke="black" cx="892.084" cy="-380" rx="116.979" ry="18"/>
<text text-anchor="middle" x="892.084" y="-376.3" font-family="Times,serif" font-size="14.00" fill="gray">\Zend_View_Helper_Abstract</text>
</g>
<!-- \\ZendX_JQuery_View_Helper_JQuery&#45;&gt;\\Zend_View_Helper_Abstract -->
<g id="edge7" class="edge"><title>\\ZendX_JQuery_View_Helper_JQuery&#45;&gt;\\Zend_View_Helper_Abstract</title>
<path fill="none" stroke="black" d="M1227,-969.628C1210.47,-965.092 1194.82,-957.451 1183.11,-945 1017.86,-769.248 1282.54,-576.744 1111.11,-407 1079.31,-375.508 1030.85,-367.214 987.693,-367.467"/>
<polygon fill="none" stroke="black" points="987.349,-363.973 977.426,-367.685 987.498,-370.971 987.349,-363.973"/>
</g>
<!-- \\ZendX_JQuery_View_Helper_Spinner -->
<g id="node9" class="node"><title>\\ZendX_JQuery_View_Helper_Spinner</title>
<polygon fill="none" stroke="black" points="987.084,-1908 797.084,-1908 797.084,-1872 987.084,-1872 987.084,-1908"/>
<text text-anchor="middle" x="892.084" y="-1887.2" font-family="Times,serif" font-size="11.00">ZendX_JQuery_View_Helper_Spinner</text>
</g>
<!-- \\ZendX_JQuery_View_Helper_Spinner&#45;&gt;\\ZendX_JQuery_View_Helper_UiWidget -->
<g id="edge8" class="edge"><title>\\ZendX_JQuery_View_Helper_Spinner&#45;&gt;\\ZendX_JQuery_View_Helper_UiWidget</title>
<path fill="none" stroke="black" d="M797.005,-1892.44C756.925,-1890 710.809,-1882.37 673.053,-1863 586.785,-1818.75 518.65,-1721.35 489.196,-1673.95"/>
<polygon fill="none" stroke="black" points="492.029,-1671.88 483.826,-1665.17 486.057,-1675.53 492.029,-1671.88"/>
</g>
<!-- \\ZendX_JQuery_View_Helper_AjaxLink -->
<g id="node10" class="node"><title>\\ZendX_JQuery_View_Helper_AjaxLink</title>
<polygon fill="none" stroke="black" points="1420.11,-936 1222.11,-936 1222.11,-900 1420.11,-900 1420.11,-936"/>
<text text-anchor="middle" x="1321.11" y="-915.2" font-family="Times,serif" font-size="11.00">ZendX_JQuery_View_Helper_AjaxLink</text>
</g>
<!-- \\Zend_View_Helper_HtmlElement -->
<g id="node49" class="node"><title>\\Zend_View_Helper_HtmlElement</title>
<ellipse fill="none" stroke="black" cx="135.838" cy="-977" rx="135.676" ry="18"/>
<text text-anchor="middle" x="135.838" y="-973.3" font-family="Times,serif" font-size="14.00" fill="gray">\Zend_View_Helper_HtmlElement</text>
</g>
<!-- \\ZendX_JQuery_View_Helper_AjaxLink&#45;&gt;\\Zend_View_Helper_HtmlElement -->
<g id="edge9" class="edge"><title>\\ZendX_JQuery_View_Helper_AjaxLink&#45;&gt;\\Zend_View_Helper_HtmlElement</title>
<path fill="none" stroke="black" d="M1222.11,-914.183C1207.4,-909.527 1193.66,-902.215 1183.11,-891 1017.86,-715.248 1292.66,-511.868 1111.11,-353 1037.86,-288.893 770.079,-345.099 673.053,-353 525.198,-365.04 457.84,-312.276 343.676,-407 169.696,-551.354 142.057,-854.621 137.667,-948.612"/>
<polygon fill="none" stroke="black" points="134.163,-948.633 137.247,-958.769 141.157,-948.922 134.163,-948.633"/>
</g>
<!-- \\ZendX_JQuery_View_Helper_UiWidgetPane&#45;&gt;\\ZendX_JQuery_View_Helper_UiWidget -->
<g id="edge10" class="edge"><title>\\ZendX_JQuery_View_Helper_UiWidgetPane&#45;&gt;\\ZendX_JQuery_View_Helper_UiWidget</title>
<path fill="none" stroke="black" d="M781.333,-1666.91C719.967,-1662.94 643.741,-1658.01 582.478,-1654.05"/>
<polygon fill="none" stroke="black" points="582.596,-1650.55 572.391,-1653.4 582.145,-1657.54 582.596,-1650.55"/>
</g>
<!-- \\ZendX_JQuery_View_Helper_AutoComplete -->
<g id="node12" class="node"><title>\\ZendX_JQuery_View_Helper_AutoComplete</title>
<polygon fill="none" stroke="black" points="1002.58,-1854 781.584,-1854 781.584,-1818 1002.58,-1818 1002.58,-1854"/>
<text text-anchor="middle" x="892.084" y="-1833.2" font-family="Times,serif" font-size="11.00">ZendX_JQuery_View_Helper_AutoComplete</text>
</g>
<!-- \\ZendX_JQuery_View_Helper_AutoComplete&#45;&gt;\\ZendX_JQuery_View_Helper_UiWidget -->
<g id="edge11" class="edge"><title>\\ZendX_JQuery_View_Helper_AutoComplete&#45;&gt;\\ZendX_JQuery_View_Helper_UiWidget</title>
<path fill="none" stroke="black" d="M781.521,-1834.35C745.828,-1830.72 706.744,-1823.34 673.053,-1809 598.849,-1777.42 529.934,-1709.74 495.794,-1672.63"/>
<polygon fill="none" stroke="black" points="498.361,-1670.25 489.047,-1665.2 493.179,-1674.96 498.361,-1670.25"/>
</g>
<!-- \\ZendX_JQuery_View_Helper_DatePicker -->
<g id="node13" class="node"><title>\\ZendX_JQuery_View_Helper_DatePicker</title>
<polygon fill="none" stroke="black" points="995.084,-1800 789.084,-1800 789.084,-1764 995.084,-1764 995.084,-1800"/>
<text text-anchor="middle" x="892.084" y="-1779.2" font-family="Times,serif" font-size="11.00">ZendX_JQuery_View_Helper_DatePicker</text>
</g>
<!-- \\ZendX_JQuery_View_Helper_DatePicker&#45;&gt;\\ZendX_JQuery_View_Helper_UiWidget -->
<g id="edge12" class="edge"><title>\\ZendX_JQuery_View_Helper_DatePicker&#45;&gt;\\ZendX_JQuery_View_Helper_UiWidget</title>
<path fill="none" stroke="black" d="M788.99,-1777.25C751.836,-1773.48 709.927,-1766.79 673.053,-1755 611.189,-1735.22 546.227,-1696.15 507.789,-1670.83"/>
<polygon fill="none" stroke="black" points="509.334,-1667.65 499.071,-1665.02 505.452,-1673.48 509.334,-1667.65"/>
</g>
<!-- \\ZendX_JQuery_View_Helper_JQuery_Container -->
<g id="node14" class="node"><title>\\ZendX_JQuery_View_Helper_JQuery_Container</title>
<polygon fill="none" stroke="black" points="1439.61,-1746 1202.61,-1746 1202.61,-1710 1439.61,-1710 1439.61,-1746"/>
<text text-anchor="middle" x="1321.11" y="-1725.2" font-family="Times,serif" font-size="11.00">ZendX_JQuery_View_Helper_JQuery_Container</text>
</g>
<!-- \\ZendX_JQuery_View_Helper_UiWidget&#45;&gt;\\Zend_View_Helper_HtmlElement -->
<g id="edge13" class="edge"><title>\\ZendX_JQuery_View_Helper_UiWidget&#45;&gt;\\Zend_View_Helper_HtmlElement</title>
<path fill="none" stroke="black" d="M462.243,-1628.73C415.891,-1535.9 206.472,-1116.46 150.583,-1004.53"/>
<polygon fill="none" stroke="black" points="153.55,-1002.64 145.951,-995.252 147.287,-1005.76 153.55,-1002.64"/>
</g>
<!-- \\ZendX_JQuery_View_Helper_DialogContainer -->
<g id="node16" class="node"><title>\\ZendX_JQuery_View_Helper_DialogContainer</title>
<polygon fill="none" stroke="black" points="1007.08,-1746 777.084,-1746 777.084,-1710 1007.08,-1710 1007.08,-1746"/>
<text text-anchor="middle" x="892.084" y="-1725.2" font-family="Times,serif" font-size="11.00">ZendX_JQuery_View_Helper_DialogContainer</text>
</g>
<!-- \\ZendX_JQuery_View_Helper_DialogContainer&#45;&gt;\\ZendX_JQuery_View_Helper_UiWidget -->
<g id="edge14" class="edge"><title>\\ZendX_JQuery_View_Helper_DialogContainer&#45;&gt;\\ZendX_JQuery_View_Helper_UiWidget</title>
<path fill="none" stroke="black" d="M776.878,-1716.93C743.277,-1712.85 706.552,-1707.57 673.053,-1701 628.732,-1692.31 579.766,-1679.12 541.414,-1667.96"/>
<polygon fill="none" stroke="black" points="541.979,-1664.48 531.398,-1665.02 540.007,-1671.19 541.979,-1664.48"/>
</g>
<!-- \\ZendX_JQuery_View_Helper_AccordionPane -->
<g id="node17" class="node"><title>\\ZendX_JQuery_View_Helper_AccordionPane</title>
<polygon fill="none" stroke="black" points="1433.11,-1800 1209.11,-1800 1209.11,-1764 1433.11,-1764 1433.11,-1800"/>
<text text-anchor="middle" x="1321.11" y="-1779.2" font-family="Times,serif" font-size="11.00">ZendX_JQuery_View_Helper_AccordionPane</text>
</g>
<!-- \\ZendX_JQuery_View_Helper_AccordionPane&#45;&gt;\\ZendX_JQuery_View_Helper_UiWidgetPane -->
<g id="edge15" class="edge"><title>\\ZendX_JQuery_View_Helper_AccordionPane&#45;&gt;\\ZendX_JQuery_View_Helper_UiWidgetPane</title>
<path fill="none" stroke="black" d="M1208.86,-1764.54C1199.99,-1761.81 1191.31,-1758.65 1183.11,-1755 1146.58,-1738.72 1148.21,-1715.96 1111.11,-1701 1080.42,-1688.62 1045.48,-1681.53 1012.71,-1677.57"/>
<polygon fill="none" stroke="black" points="1012.94,-1674.07 1002.61,-1676.44 1012.16,-1681.03 1012.94,-1674.07"/>
</g>
<!-- \\ZendX_JQuery_View_Helper_Slider -->
<g id="node18" class="node"><title>\\ZendX_JQuery_View_Helper_Slider</title>
<polygon fill="none" stroke="black" points="983.084,-1584 801.084,-1584 801.084,-1548 983.084,-1548 983.084,-1584"/>
<text text-anchor="middle" x="892.084" y="-1563.2" font-family="Times,serif" font-size="11.00">ZendX_JQuery_View_Helper_Slider</text>
</g>
<!-- \\ZendX_JQuery_View_Helper_Slider&#45;&gt;\\ZendX_JQuery_View_Helper_UiWidget -->
<g id="edge16" class="edge"><title>\\ZendX_JQuery_View_Helper_Slider&#45;&gt;\\ZendX_JQuery_View_Helper_UiWidget</title>
<path fill="none" stroke="black" d="M800.995,-1574.27C761.526,-1578.64 714.786,-1584.82 673.053,-1593 628.732,-1601.69 579.766,-1614.88 541.414,-1626.04"/>
<polygon fill="none" stroke="black" points="540.007,-1622.81 531.398,-1628.98 541.979,-1629.52 540.007,-1622.81"/>
</g>
<!-- \\ZendX_JQuery_View_Helper_ColorPicker -->
<g id="node19" class="node"><title>\\ZendX_JQuery_View_Helper_ColorPicker</title>
<polygon fill="none" stroke="black" points="996.584,-1638 787.584,-1638 787.584,-1602 996.584,-1602 996.584,-1638"/>
<text text-anchor="middle" x="892.084" y="-1617.2" font-family="Times,serif" font-size="11.00">ZendX_JQuery_View_Helper_ColorPicker</text>
</g>
<!-- \\ZendX_JQuery_View_Helper_ColorPicker&#45;&gt;\\ZendX_JQuery_View_Helper_UiWidget -->
<g id="edge17" class="edge"><title>\\ZendX_JQuery_View_Helper_ColorPicker&#45;&gt;\\ZendX_JQuery_View_Helper_UiWidget</title>
<path fill="none" stroke="black" d="M787.559,-1626.69C725.177,-1630.72 645.814,-1635.85 582.458,-1639.95"/>
<polygon fill="none" stroke="black" points="582.186,-1636.46 572.433,-1640.6 582.638,-1643.44 582.186,-1636.46"/>
</g>
<!-- \\ZendX_JQuery_View_Exception -->
<g id="node20" class="node"><title>\\ZendX_JQuery_View_Exception</title>
<polygon fill="none" stroke="black" points="1403.11,-1962 1239.11,-1962 1239.11,-1926 1403.11,-1926 1403.11,-1962"/>
<text text-anchor="middle" x="1321.11" y="-1941.2" font-family="Times,serif" font-size="11.00">ZendX_JQuery_View_Exception</text>
</g>
<!-- \\ZendX_JQuery_View_Exception&#45;&gt;\\ZendX_JQuery_Exception -->
<g id="edge18" class="edge"><title>\\ZendX_JQuery_View_Exception&#45;&gt;\\ZendX_JQuery_Exception</title>
<path fill="none" stroke="black" d="M1238.74,-1954.61C1200.08,-1959.63 1153.22,-1965.67 1111.11,-1971 1064.1,-1976.95 1011.36,-1983.48 969.525,-1988.63"/>
<polygon fill="none" stroke="black" points="968.907,-1985.18 959.409,-1989.88 969.762,-1992.13 968.907,-1985.18"/>
</g>
<!-- \\ZendX_JQuery_Controller_Action_Helper_AutoComplete -->
<g id="node21" class="node"><title>\\ZendX_JQuery_Controller_Action_Helper_AutoComplete</title>
<polygon fill="none" stroke="black" points="1459.11,-882 1183.11,-882 1183.11,-846 1459.11,-846 1459.11,-882"/>
<text text-anchor="middle" x="1321.11" y="-861.2" font-family="Times,serif" font-size="11.00">ZendX_JQuery_Controller_Action_Helper_AutoComplete</text>
</g>
<!-- \\Zend_Controller_Action_Helper_AutoComplete_Abstract -->
<g id="node50" class="node"><title>\\Zend_Controller_Action_Helper_AutoComplete_Abstract</title>
<ellipse fill="none" stroke="black" cx="892.084" cy="-288" rx="219.061" ry="18"/>
<text text-anchor="middle" x="892.084" y="-284.3" font-family="Times,serif" font-size="14.00" fill="gray">\Zend_Controller_Action_Helper_AutoComplete_Abstract</text>
</g>
<!-- \\ZendX_JQuery_Controller_Action_Helper_AutoComplete&#45;&gt;\\Zend_Controller_Action_Helper_AutoComplete_Abstract -->
<g id="edge19" class="edge"><title>\\ZendX_JQuery_Controller_Action_Helper_AutoComplete&#45;&gt;\\Zend_Controller_Action_Helper_AutoComplete_Abstract</title>
<path fill="none" stroke="black" d="M1193.11,-845.818C1189.55,-843.188 1186.2,-840.259 1183.11,-837 1023.74,-668.409 1274.56,-484.647 1111.11,-320 1104.21,-313.048 1096.51,-307.166 1088.24,-302.21"/>
<polygon fill="none" stroke="black" points="1089.87,-299.114 1079.42,-297.375 1086.5,-305.252 1089.87,-299.114"/>
</g>
<!-- \\ZendX_JQuery_Form_Exception -->
<g id="node22" class="node"><title>\\ZendX_JQuery_Form_Exception</title>
<polygon fill="none" stroke="black" points="1402.61,-1908 1239.61,-1908 1239.61,-1872 1402.61,-1872 1402.61,-1908"/>
<text text-anchor="middle" x="1321.11" y="-1887.2" font-family="Times,serif" font-size="11.00">ZendX_JQuery_Form_Exception</text>
</g>
<!-- \\ZendX_JQuery_Form_Exception&#45;&gt;\\ZendX_JQuery_Exception -->
<g id="edge20" class="edge"><title>\\ZendX_JQuery_Form_Exception&#45;&gt;\\ZendX_JQuery_Exception</title>
<path fill="none" stroke="black" d="M1239.29,-1899.7C1220.35,-1903.65 1200.61,-1909.21 1183.11,-1917 1146.58,-1933.28 1148.21,-1956.04 1111.11,-1971 1066.25,-1989.09 1012.32,-1995.89 969.326,-1998.13"/>
<polygon fill="none" stroke="black" points="969.038,-1994.64 959.206,-1998.59 969.353,-2001.64 969.038,-1994.64"/>
</g>
<!-- \\ZendX_JQuery_Form_Element_Spinner -->
<g id="node23" class="node"><title>\\ZendX_JQuery_Form_Element_Spinner</title>
<polygon fill="none" stroke="black" points="1418.11,-1584 1224.11,-1584 1224.11,-1548 1418.11,-1548 1418.11,-1584"/>
<text text-anchor="middle" x="1321.11" y="-1563.2" font-family="Times,serif" font-size="11.00">ZendX_JQuery_Form_Element_Spinner</text>
</g>
<!-- \\ZendX_JQuery_Form_Element_UiWidget -->
<g id="node26" class="node"><title>\\ZendX_JQuery_Form_Element_UiWidget</title>
<polygon fill="none" stroke="black" points="994.084,-1422 790.084,-1422 790.084,-1386 994.084,-1386 994.084,-1422"/>
<text text-anchor="middle" x="892.084" y="-1401.2" font-family="Times,serif" font-size="11.00">ZendX_JQuery_Form_Element_UiWidget</text>
</g>
<!-- \\ZendX_JQuery_Form_Element_Spinner&#45;&gt;\\ZendX_JQuery_Form_Element_UiWidget -->
<g id="edge21" class="edge"><title>\\ZendX_JQuery_Form_Element_Spinner&#45;&gt;\\ZendX_JQuery_Form_Element_UiWidget</title>
<path fill="none" stroke="black" d="M1223.79,-1557.06C1209.4,-1552.95 1195.31,-1547.14 1183.11,-1539 1135.14,-1506.97 1160.2,-1461.3 1111.11,-1431 1079.59,-1411.54 1040.61,-1402.96 1004.36,-1399.81"/>
<polygon fill="none" stroke="black" points="1004.45,-1396.3 994.217,-1399.06 1003.93,-1403.29 1004.45,-1396.3"/>
</g>
<!-- \\ZendX_JQuery_Form_Element_AutoComplete -->
<g id="node24" class="node"><title>\\ZendX_JQuery_Form_Element_AutoComplete</title>
<polygon fill="none" stroke="black" points="1433.61,-1530 1208.61,-1530 1208.61,-1494 1433.61,-1494 1433.61,-1530"/>
<text text-anchor="middle" x="1321.11" y="-1509.2" font-family="Times,serif" font-size="11.00">ZendX_JQuery_Form_Element_AutoComplete</text>
</g>
<!-- \\ZendX_JQuery_Form_Element_AutoComplete&#45;&gt;\\ZendX_JQuery_Form_Element_UiWidget -->
<g id="edge22" class="edge"><title>\\ZendX_JQuery_Form_Element_AutoComplete&#45;&gt;\\ZendX_JQuery_Form_Element_UiWidget</title>
<path fill="none" stroke="black" d="M1208.5,-1494.43C1199.76,-1491.72 1191.2,-1488.6 1183.11,-1485 1146.58,-1468.72 1148.21,-1445.96 1111.11,-1431 1077.87,-1417.59 1039.66,-1410.39 1004.6,-1406.65"/>
<polygon fill="none" stroke="black" points="1004.61,-1403.13 994.314,-1405.63 1003.92,-1410.1 1004.61,-1403.13"/>
</g>
<!-- \\ZendX_JQuery_Form_Element_DatePicker -->
<g id="node25" class="node"><title>\\ZendX_JQuery_Form_Element_DatePicker</title>
<polygon fill="none" stroke="black" points="1426.61,-1476 1215.61,-1476 1215.61,-1440 1426.61,-1440 1426.61,-1476"/>
<text text-anchor="middle" x="1321.11" y="-1455.2" font-family="Times,serif" font-size="11.00">ZendX_JQuery_Form_Element_DatePicker</text>
</g>
<!-- \\ZendX_JQuery_Form_Element_DatePicker&#45;&gt;\\ZendX_JQuery_Form_Element_UiWidget -->
<g id="edge23" class="edge"><title>\\ZendX_JQuery_Form_Element_DatePicker&#45;&gt;\\ZendX_JQuery_Form_Element_UiWidget</title>
<path fill="none" stroke="black" d="M1215.41,-1444.36C1182.08,-1440.05 1145.05,-1435.29 1111.11,-1431 1076.42,-1426.61 1038.6,-1421.9 1004.35,-1417.66"/>
<polygon fill="none" stroke="black" points="1004.68,-1414.18 994.322,-1416.42 1003.82,-1421.12 1004.68,-1414.18"/>
</g>
<!-- \\Zend_Form_Element -->
<g id="node51" class="node"><title>\\Zend_Form_Element</title>
<ellipse fill="none" stroke="black" cx="472.364" cy="-488" rx="89.0842" ry="18"/>
<text text-anchor="middle" x="472.364" y="-484.3" font-family="Times,serif" font-size="14.00" fill="gray">\Zend_Form_Element</text>
</g>
<!-- \\ZendX_JQuery_Form_Element_UiWidget&#45;&gt;\\Zend_Form_Element -->
<g id="edge24" class="edge"><title>\\ZendX_JQuery_Form_Element_UiWidget&#45;&gt;\\Zend_Form_Element</title>
<path fill="none" stroke="black" d="M790.027,-1390.66C747.265,-1379.66 700.975,-1359.6 673.053,-1323 563.041,-1178.8 723.92,-643.417 601.053,-510 592.898,-501.145 582.573,-495.03 571.341,-490.898"/>
<polygon fill="none" stroke="black" points="572.309,-487.534 561.72,-487.876 570.212,-494.212 572.309,-487.534"/>
</g>
<!-- \\ZendX_JQuery_Form_Element_Slider -->
<g id="node27" class="node"><title>\\ZendX_JQuery_Form_Element_Slider</title>
<polygon fill="none" stroke="black" points="1414.61,-1422 1227.61,-1422 1227.61,-1386 1414.61,-1386 1414.61,-1422"/>
<text text-anchor="middle" x="1321.11" y="-1401.2" font-family="Times,serif" font-size="11.00">ZendX_JQuery_Form_Element_Slider</text>
</g>
<!-- \\ZendX_JQuery_Form_Element_Slider&#45;&gt;\\ZendX_JQuery_Form_Element_UiWidget -->
<g id="edge25" class="edge"><title>\\ZendX_JQuery_Form_Element_Slider&#45;&gt;\\ZendX_JQuery_Form_Element_UiWidget</title>
<path fill="none" stroke="black" d="M1227.45,-1404C1161.87,-1404 1073.61,-1404 1004.24,-1404"/>
<polygon fill="none" stroke="black" points="1004.14,-1400.5 994.142,-1404 1004.14,-1407.5 1004.14,-1400.5"/>
</g>
<!-- \\ZendX_JQuery_Form_Element_ColorPicker -->
<g id="node28" class="node"><title>\\ZendX_JQuery_Form_Element_ColorPicker</title>
<polygon fill="none" stroke="black" points="1428.11,-1638 1214.11,-1638 1214.11,-1602 1428.11,-1602 1428.11,-1638"/>
<text text-anchor="middle" x="1321.11" y="-1617.2" font-family="Times,serif" font-size="11.00">ZendX_JQuery_Form_Element_ColorPicker</text>
</g>
<!-- \\ZendX_JQuery_Form_Element_ColorPicker&#45;&gt;\\ZendX_JQuery_Form_Element_UiWidget -->
<g id="edge26" class="edge"><title>\\ZendX_JQuery_Form_Element_ColorPicker&#45;&gt;\\ZendX_JQuery_Form_Element_UiWidget</title>
<path fill="none" stroke="black" d="M1213.77,-1609.87C1202.71,-1605.74 1192.21,-1600.26 1183.11,-1593 1121.53,-1543.85 1174.41,-1477.92 1111.11,-1431 1080.87,-1408.58 1041.52,-1399.43 1004.6,-1396.66"/>
<polygon fill="none" stroke="black" points="1004.45,-1393.15 994.26,-1396.04 1004.03,-1400.13 1004.45,-1393.15"/>
</g>
<!-- \\ZendX_JQuery_Form_Decorator_TabPane -->
<g id="node29" class="node"><title>\\ZendX_JQuery_Form_Decorator_TabPane</title>
<polygon fill="none" stroke="black" points="1425.11,-1368 1217.11,-1368 1217.11,-1332 1425.11,-1332 1425.11,-1368"/>
<text text-anchor="middle" x="1321.11" y="-1347.2" font-family="Times,serif" font-size="11.00">ZendX_JQuery_Form_Decorator_TabPane</text>
</g>
<!-- \\ZendX_JQuery_Form_Decorator_UiWidgetPane -->
<g id="node33" class="node"><title>\\ZendX_JQuery_Form_Decorator_UiWidgetPane</title>
<polygon fill="none" stroke="black" points="1009.08,-1314 775.084,-1314 775.084,-1278 1009.08,-1278 1009.08,-1314"/>
<text text-anchor="start" x="869.084" y="-1299.2" font-family="Times,serif" font-size="11.00">«abstract»</text>
<text text-anchor="start" x="783.084" y="-1287.2" font-family="Times,serif" font-size="11.00">ZendX_JQuery_Form_Decorator_UiWidgetPane</text>
</g>
<!-- \\ZendX_JQuery_Form_Decorator_TabPane&#45;&gt;\\ZendX_JQuery_Form_Decorator_UiWidgetPane -->
<g id="edge27" class="edge"><title>\\ZendX_JQuery_Form_Decorator_TabPane&#45;&gt;\\ZendX_JQuery_Form_Decorator_UiWidgetPane</title>
<path fill="none" stroke="black" d="M1217.01,-1336.96C1157.51,-1329.44 1082.21,-1319.92 1019.2,-1311.95"/>
<polygon fill="none" stroke="black" points="1019.55,-1308.46 1009.19,-1310.68 1018.67,-1315.41 1019.55,-1308.46"/>
</g>
<!-- \\ZendX_JQuery_Form_Decorator_TabContainer -->
<g id="node30" class="node"><title>\\ZendX_JQuery_Form_Decorator_TabContainer</title>
<polygon fill="none" stroke="black" points="1436.11,-1206 1206.11,-1206 1206.11,-1170 1436.11,-1170 1436.11,-1206"/>
<text text-anchor="middle" x="1321.11" y="-1185.2" font-family="Times,serif" font-size="11.00">ZendX_JQuery_Form_Decorator_TabContainer</text>
</g>
<!-- \\ZendX_JQuery_Form_Decorator_UiWidgetContainer -->
<g id="node32" class="node"><title>\\ZendX_JQuery_Form_Decorator_UiWidgetContainer</title>
<polygon fill="none" stroke="black" points="1020.08,-1179 764.084,-1179 764.084,-1143 1020.08,-1143 1020.08,-1179"/>
<text text-anchor="start" x="869.084" y="-1164.2" font-family="Times,serif" font-size="11.00">«abstract»</text>
<text text-anchor="start" x="772.084" y="-1152.2" font-family="Times,serif" font-size="11.00">ZendX_JQuery_Form_Decorator_UiWidgetContainer</text>
</g>
<!-- \\ZendX_JQuery_Form_Decorator_TabContainer&#45;&gt;\\ZendX_JQuery_Form_Decorator_UiWidgetContainer -->
<g id="edge28" class="edge"><title>\\ZendX_JQuery_Form_Decorator_TabContainer&#45;&gt;\\ZendX_JQuery_Form_Decorator_UiWidgetContainer</title>
<path fill="none" stroke="black" d="M1205.96,-1180.78C1152,-1177.37 1087.15,-1173.27 1030.52,-1169.69"/>
<polygon fill="none" stroke="black" points="1030.61,-1166.19 1020.41,-1169.05 1030.17,-1173.17 1030.61,-1166.19"/>
</g>
<!-- \\ZendX_JQuery_Form_Decorator_AccordionContainer -->
<g id="node31" class="node"><title>\\ZendX_JQuery_Form_Decorator_AccordionContainer</title>
<polygon fill="none" stroke="black" points="1450.61,-1152 1191.61,-1152 1191.61,-1116 1450.61,-1116 1450.61,-1152"/>
<text text-anchor="middle" x="1321.11" y="-1131.2" font-family="Times,serif" font-size="11.00">ZendX_JQuery_Form_Decorator_AccordionContainer</text>
</g>
<!-- \\ZendX_JQuery_Form_Decorator_AccordionContainer&#45;&gt;\\ZendX_JQuery_Form_Decorator_UiWidgetContainer -->
<g id="edge29" class="edge"><title>\\ZendX_JQuery_Form_Decorator_AccordionContainer&#45;&gt;\\ZendX_JQuery_Form_Decorator_UiWidgetContainer</title>
<path fill="none" stroke="black" d="M1191.41,-1142.14C1140.65,-1145.35 1082.24,-1149.04 1030.64,-1152.3"/>
<polygon fill="none" stroke="black" points="1030.18,-1148.82 1020.42,-1152.95 1030.62,-1155.81 1030.18,-1148.82"/>
</g>
<!-- \\Zend_Form_Decorator_Abstract -->
<g id="node52" class="node"><title>\\Zend_Form_Decorator_Abstract</title>
<ellipse fill="none" stroke="black" cx="472.364" cy="-434" rx="128.877" ry="18"/>
<text text-anchor="middle" x="472.364" y="-430.3" font-family="Times,serif" font-size="14.00" fill="gray">\Zend_Form_Decorator_Abstract</text>
</g>
<!-- \\ZendX_JQuery_Form_Decorator_UiWidgetContainer&#45;&gt;\\Zend_Form_Decorator_Abstract -->
<g id="edge30" class="edge"><title>\\ZendX_JQuery_Form_Decorator_UiWidgetContainer&#45;&gt;\\Zend_Form_Decorator_Abstract</title>
<path fill="none" stroke="black" d="M763.84,-1155.56C729.809,-1147.83 696.118,-1133.32 673.053,-1107 482.672,-889.717 795.143,-674.976 601.053,-461 596.957,-456.484 592.312,-452.62 587.277,-449.319"/>
<polygon fill="none" stroke="black" points="588.885,-446.207 578.466,-444.281 585.41,-452.283 588.885,-446.207"/>
</g>
<!-- \\ZendX_JQuery_Form_Decorator_UiWidgetPane&#45;&gt;\\Zend_Form_Decorator_Abstract -->
<g id="edge31" class="edge"><title>\\ZendX_JQuery_Form_Decorator_UiWidgetPane&#45;&gt;\\Zend_Form_Decorator_Abstract</title>
<path fill="none" stroke="black" d="M813.003,-1277.95C764.555,-1262.48 705.538,-1235 673.053,-1188 580.744,-1054.45 709.385,-581.915 601.053,-461 596.985,-456.459 592.361,-452.575 587.344,-449.259"/>
<polygon fill="none" stroke="black" points="588.97,-446.156 578.557,-444.199 585.477,-452.223 588.97,-446.156"/>
</g>
<!-- \\ZendX_JQuery_Form_Decorator_DialogContainer -->
<g id="node34" class="node"><title>\\ZendX_JQuery_Form_Decorator_DialogContainer</title>
<polygon fill="none" stroke="black" points="1442.11,-1260 1200.11,-1260 1200.11,-1224 1442.11,-1224 1442.11,-1260"/>
<text text-anchor="middle" x="1321.11" y="-1239.2" font-family="Times,serif" font-size="11.00">ZendX_JQuery_Form_Decorator_DialogContainer</text>
</g>
<!-- \\ZendX_JQuery_Form_Decorator_DialogContainer&#45;&gt;\\ZendX_JQuery_Form_Decorator_UiWidgetContainer -->
<g id="edge32" class="edge"><title>\\ZendX_JQuery_Form_Decorator_DialogContainer&#45;&gt;\\ZendX_JQuery_Form_Decorator_UiWidgetContainer</title>
<path fill="none" stroke="black" d="M1225.08,-1223.97C1157.85,-1211.22 1067.69,-1194.12 998.294,-1180.96"/>
<polygon fill="none" stroke="black" points="998.688,-1177.47 988.211,-1179.04 997.384,-1184.35 998.688,-1177.47"/>
</g>
<!-- \\ZendX_JQuery_Form_Decorator_AccordionPane -->
<g id="node35" class="node"><title>\\ZendX_JQuery_Form_Decorator_AccordionPane</title>
<polygon fill="none" stroke="black" points="1439.61,-1314 1202.61,-1314 1202.61,-1278 1439.61,-1278 1439.61,-1314"/>
<text text-anchor="middle" x="1321.11" y="-1293.2" font-family="Times,serif" font-size="11.00">ZendX_JQuery_Form_Decorator_AccordionPane</text>
</g>
<!-- \\ZendX_JQuery_Form_Decorator_AccordionPane&#45;&gt;\\ZendX_JQuery_Form_Decorator_UiWidgetPane -->
<g id="edge33" class="edge"><title>\\ZendX_JQuery_Form_Decorator_AccordionPane&#45;&gt;\\ZendX_JQuery_Form_Decorator_UiWidgetPane</title>
<path fill="none" stroke="black" d="M1202.58,-1296C1145.75,-1296 1077.46,-1296 1019.51,-1296"/>
<polygon fill="none" stroke="black" points="1019.19,-1292.5 1009.19,-1296 1019.19,-1299.5 1019.19,-1292.5"/>
</g>
<!-- \\ZendX_JQuery_Form_Decorator_UiWidgetElement -->
<g id="node36" class="node"><title>\\ZendX_JQuery_Form_Decorator_UiWidgetElement</title>
<polygon fill="none" stroke="black" points="1445.61,-1098 1196.61,-1098 1196.61,-1062 1445.61,-1062 1445.61,-1098"/>
<text text-anchor="middle" x="1321.11" y="-1077.2" font-family="Times,serif" font-size="11.00">ZendX_JQuery_Form_Decorator_UiWidgetElement</text>
</g>
<!-- \\ZendX_JQuery_Form_Decorator_UiWidgetElementMarker -->
<g id="node45" class="node"><title>\\ZendX_JQuery_Form_Decorator_UiWidgetElementMarker</title>
<polygon fill="none" stroke="black" points="1033.08,-1098 751.084,-1098 751.084,-1062 1033.08,-1062 1033.08,-1098"/>
<text text-anchor="middle" x="892.084" y="-1077.2" font-family="Times,serif" font-size="11.00">ZendX_JQuery_Form_Decorator_UiWidgetElementMarker</text>
</g>
<!-- \\ZendX_JQuery_Form_Decorator_UiWidgetElement&#45;&gt;\\ZendX_JQuery_Form_Decorator_UiWidgetElementMarker -->
<g id="edge35" class="edge"><title>\\ZendX_JQuery_Form_Decorator_UiWidgetElement&#45;&gt;\\ZendX_JQuery_Form_Decorator_UiWidgetElementMarker</title>
<path fill="none" stroke="black" stroke-dasharray="1,5" d="M1196.6,-1080C1148.78,-1080 1093.59,-1080 1043.49,-1080"/>
<polygon fill="none" stroke="black" points="1043.22,-1076.5 1033.22,-1080 1043.22,-1083.5 1043.22,-1076.5"/>
</g>
<!-- \\Zend_Form_Decorator_ViewHelper -->
<g id="node53" class="node"><title>\\Zend_Form_Decorator_ViewHelper</title>
<ellipse fill="none" stroke="black" cx="892.084" cy="-488" rx="141.875" ry="18"/>
<text text-anchor="middle" x="892.084" y="-484.3" font-family="Times,serif" font-size="14.00" fill="gray">\Zend_Form_Decorator_ViewHelper</text>
</g>
<!-- \\ZendX_JQuery_Form_Decorator_UiWidgetElement&#45;&gt;\\Zend_Form_Decorator_ViewHelper -->
<g id="edge34" class="edge"><title>\\ZendX_JQuery_Form_Decorator_UiWidgetElement&#45;&gt;\\Zend_Form_Decorator_ViewHelper</title>
<path fill="none" stroke="black" d="M1196.61,-1064.32C1191.72,-1061.08 1187.18,-1057.33 1183.11,-1053 1016.46,-875.542 1285.93,-679.43 1111.11,-510 1078.86,-478.742 1029.99,-471.634 986.686,-473.051"/>
<polygon fill="none" stroke="black" points="986.499,-469.556 976.678,-473.53 986.834,-476.548 986.499,-469.556"/>
</g>
<!-- \\ZendX_Db_Adapter_Firebird_Exception -->
<g id="node37" class="node"><title>\\ZendX_Db_Adapter_Firebird_Exception</title>
<polygon fill="none" stroke="black" points="1419.61,-828 1222.61,-828 1222.61,-792 1419.61,-792 1419.61,-828"/>
<text text-anchor="middle" x="1321.11" y="-807.2" font-family="Times,serif" font-size="11.00">ZendX_Db_Adapter_Firebird_Exception</text>
</g>
<!-- \\Zend_Db_Adapter_Exception -->
<g id="node54" class="node"><title>\\Zend_Db_Adapter_Exception</title>
<ellipse fill="none" stroke="black" cx="892.084" cy="-234" rx="118.879" ry="18"/>
<text text-anchor="middle" x="892.084" y="-230.3" font-family="Times,serif" font-size="14.00" fill="gray">\Zend_Db_Adapter_Exception</text>
</g>
<!-- \\ZendX_Db_Adapter_Firebird_Exception&#45;&gt;\\Zend_Db_Adapter_Exception -->
<g id="edge36" class="edge"><title>\\ZendX_Db_Adapter_Firebird_Exception&#45;&gt;\\Zend_Db_Adapter_Exception</title>
<path fill="none" stroke="black" d="M1222.49,-806.257C1207.65,-801.61 1193.76,-794.282 1183.11,-783 1022.34,-612.704 1277.86,-425.451 1111.11,-261 1079.63,-229.944 1031.93,-221.482 989.171,-221.518"/>
<polygon fill="none" stroke="black" points="988.935,-218.021 978.994,-221.683 989.049,-225.02 988.935,-218.021"/>
</g>
<!-- \\ZendX_Db_Adapter_Firebird -->
<g id="node38" class="node"><title>\\ZendX_Db_Adapter_Firebird</title>
<polygon fill="none" stroke="black" points="1395.11,-774 1247.11,-774 1247.11,-738 1395.11,-738 1395.11,-774"/>
<text text-anchor="middle" x="1321.11" y="-753.2" font-family="Times,serif" font-size="11.00">ZendX_Db_Adapter_Firebird</text>
</g>
<!-- \\Zend_Db_Adapter_Abstract -->
<g id="node55" class="node"><title>\\Zend_Db_Adapter_Abstract</title>
<ellipse fill="none" stroke="black" cx="892.084" cy="-180" rx="113.18" ry="18"/>
<text text-anchor="middle" x="892.084" y="-176.3" font-family="Times,serif" font-size="14.00" fill="gray">\Zend_Db_Adapter_Abstract</text>
</g>
<!-- \\ZendX_Db_Adapter_Firebird&#45;&gt;\\Zend_Db_Adapter_Abstract -->
<g id="edge37" class="edge"><title>\\ZendX_Db_Adapter_Firebird&#45;&gt;\\Zend_Db_Adapter_Abstract</title>
<path fill="none" stroke="black" d="M1246.97,-757.632C1223.57,-754.362 1199.51,-746.363 1183.11,-729 1022.34,-558.704 1277.86,-371.451 1111.11,-207 1078.74,-175.071 1029.24,-167.025 985.577,-167.541"/>
<polygon fill="none" stroke="black" points="985.395,-164.045 975.492,-167.81 985.582,-171.042 985.395,-164.045"/>
</g>
<!-- \\ZendX_Db_Statement_Firebird_Exception -->
<g id="node39" class="node"><title>\\ZendX_Db_Statement_Firebird_Exception</title>
<polygon fill="none" stroke="black" points="1424.11,-720 1218.11,-720 1218.11,-684 1424.11,-684 1424.11,-720"/>
<text text-anchor="middle" x="1321.11" y="-699.2" font-family="Times,serif" font-size="11.00">ZendX_Db_Statement_Firebird_Exception</text>
</g>
<!-- \\Zend_Db_Statement_Exception -->
<g id="node56" class="node"><title>\\Zend_Db_Statement_Exception</title>
<ellipse fill="none" stroke="black" cx="892.084" cy="-126" rx="126.178" ry="18"/>
<text text-anchor="middle" x="892.084" y="-122.3" font-family="Times,serif" font-size="14.00" fill="gray">\Zend_Db_Statement_Exception</text>
</g>
<!-- \\ZendX_Db_Statement_Firebird_Exception&#45;&gt;\\Zend_Db_Statement_Exception -->
<g id="edge38" class="edge"><title>\\ZendX_Db_Statement_Firebird_Exception&#45;&gt;\\Zend_Db_Statement_Exception</title>
<path fill="none" stroke="black" d="M1218,-696.757C1204.87,-692.081 1192.68,-685.136 1183.11,-675 1022.34,-504.704 1277.86,-317.451 1111.11,-153 1080.7,-123 1035.15,-114.084 993.546,-113.544"/>
<polygon fill="none" stroke="black" points="993.335,-110.045 983.346,-113.575 993.356,-117.045 993.335,-110.045"/>
</g>
<!-- \\ZendX_Db_Statement_Firebird -->
<g id="node40" class="node"><title>\\ZendX_Db_Statement_Firebird</title>
<polygon fill="none" stroke="black" points="1399.11,-666 1243.11,-666 1243.11,-630 1399.11,-630 1399.11,-666"/>
<text text-anchor="middle" x="1321.11" y="-645.2" font-family="Times,serif" font-size="11.00">ZendX_Db_Statement_Firebird</text>
</g>
<!-- \\Zend_Db_Statement -->
<g id="node57" class="node"><title>\\Zend_Db_Statement</title>
<ellipse fill="none" stroke="black" cx="892.084" cy="-72" rx="86.3847" ry="18"/>
<text text-anchor="middle" x="892.084" y="-68.3" font-family="Times,serif" font-size="14.00" fill="gray">\Zend_Db_Statement</text>
</g>
<!-- \\ZendX_Db_Statement_Firebird&#45;&gt;\\Zend_Db_Statement -->
<g id="edge39" class="edge"><title>\\ZendX_Db_Statement_Firebird&#45;&gt;\\Zend_Db_Statement</title>
<path fill="none" stroke="black" d="M1243.04,-649.04C1220.9,-645.44 1198.59,-637.394 1183.11,-621 1022.34,-450.704 1277.86,-263.451 1111.11,-99 1074.81,-63.1941 1016.96,-57.4224 969.972,-60.0805"/>
<polygon fill="none" stroke="black" points="969.547,-56.6017 959.817,-60.7933 970.037,-63.5845 969.547,-56.6017"/>
</g>
<!-- \\ZendX_Application_Resource_Jquery -->
<g id="node41" class="node"><title>\\ZendX_Application_Resource_Jquery</title>
<polygon fill="none" stroke="black" points="1414.11,-612 1228.11,-612 1228.11,-576 1414.11,-576 1414.11,-612"/>
<text text-anchor="middle" x="1321.11" y="-591.2" font-family="Times,serif" font-size="11.00">ZendX_Application_Resource_Jquery</text>
</g>
<!-- \\Zend_Application_Resource_ResourceAbstract -->
<g id="node58" class="node"><title>\\Zend_Application_Resource_ResourceAbstract</title>
<ellipse fill="none" stroke="black" cx="892.084" cy="-18" rx="180.868" ry="18"/>
<text text-anchor="middle" x="892.084" y="-14.3" font-family="Times,serif" font-size="14.00" fill="gray">\Zend_Application_Resource_ResourceAbstract</text>
</g>
<!-- \\ZendX_Application_Resource_Jquery&#45;&gt;\\Zend_Application_Resource_ResourceAbstract -->
<g id="edge40" class="edge"><title>\\ZendX_Application_Resource_Jquery&#45;&gt;\\Zend_Application_Resource_ResourceAbstract</title>
<path fill="none" stroke="black" d="M1228.1,-591.876C1211.18,-587.38 1195.1,-579.692 1183.11,-567 1022.34,-396.704 1277.86,-209.451 1111.11,-45 1102.31,-36.3165 1092.24,-29.3995 1081.36,-23.9407"/>
<polygon fill="none" stroke="black" points="1082.6,-20.6573 1072.05,-19.6916 1079.69,-27.0261 1082.6,-20.6573"/>
</g>
<!-- \\ZendX_Console_Exception -->
<g id="node42" class="node"><title>\\ZendX_Console_Exception</title>
<polygon fill="none" stroke="black" points="961.084,-1962 823.084,-1962 823.084,-1926 961.084,-1926 961.084,-1962"/>
<text text-anchor="middle" x="892.084" y="-1941.2" font-family="Times,serif" font-size="11.00">ZendX_Console_Exception</text>
</g>
<!-- \\ZendX_Console_Exception&#45;&gt;\\ZendX_Exception -->
<g id="edge41" class="edge"><title>\\ZendX_Console_Exception&#45;&gt;\\ZendX_Exception</title>
<path fill="none" stroke="black" d="M823.04,-1944.33C741.897,-1944.71 607.675,-1945.36 531.283,-1945.72"/>
<polygon fill="none" stroke="black" points="530.882,-1942.22 520.898,-1945.77 530.915,-1949.22 530.882,-1942.22"/>
</g>
<!-- \\ZendX_Console_Process_Exception -->
<g id="node43" class="node"><title>\\ZendX_Console_Process_Exception</title>
<polygon fill="none" stroke="black" points="1410.11,-1854 1232.11,-1854 1232.11,-1818 1410.11,-1818 1410.11,-1854"/>
<text text-anchor="middle" x="1321.11" y="-1833.2" font-family="Times,serif" font-size="11.00">ZendX_Console_Process_Exception</text>
</g>
<!-- \\ZendX_Console_Process_Exception&#45;&gt;\\ZendX_Console_Exception -->
<g id="edge42" class="edge"><title>\\ZendX_Console_Process_Exception&#45;&gt;\\ZendX_Console_Exception</title>
<path fill="none" stroke="black" d="M1232.07,-1847.28C1215.39,-1851.1 1198.39,-1856.19 1183.11,-1863 1146.58,-1879.28 1148.21,-1902.04 1111.11,-1917 1066.9,-1934.83 1013.9,-1941.69 971.216,-1944.03"/>
<polygon fill="none" stroke="black" points="970.981,-1940.54 961.16,-1944.51 971.316,-1947.53 970.981,-1940.54"/>
</g>
<!-- \\ZendX_Console_Process_Unix -->
<g id="node44" class="node"><title>\\ZendX_Console_Process_Unix</title>
<polygon fill="none" stroke="black" points="1398.61,-558 1243.61,-558 1243.61,-522 1398.61,-522 1398.61,-558"/>
<text text-anchor="start" x="1298.11" y="-543.2" font-family="Times,serif" font-size="11.00">«abstract»</text>
<text text-anchor="start" x="1251.61" y="-531.2" font-family="Times,serif" font-size="11.00">ZendX_Console_Process_Unix</text>
</g>
</g>
</svg>
